M48
; DRILL file KiCad 10.0.4+b1 date 2026-07-21T11:25:44
; FORMAT={-:-/ absolute / metric / decimal}
; #@! TF.CreationDate,2026-07-21T11:25:44+02:00
; #@! TF.GenerationSoftware,Kicad,Pcbnew,10.0.4+b1
; #@! TF.FileFunction,MixedPlating,1,2
FMAT,2
METRIC
; #@! TA.AperFunction,Plated,PTH,ViaDrill
T1C0.400
; #@! TA.AperFunction,Plated,PTH,ComponentDrill
T2C0.750
; #@! TA.AperFunction,Plated,PTH,ComponentDrill
T3C0.800
; #@! TA.AperFunction,Plated,PTH,ComponentDrill
T4C0.900
; #@! TA.AperFunction,Plated,PTH,ComponentDrill
T5C0.950
; #@! TA.AperFunction,Plated,PTH,ComponentDrill
T6C1.000
; #@! TA.AperFunction,Plated,PTH,ComponentDrill
T7C1.010
; #@! TA.AperFunction,Plated,PTH,ComponentDrill
T8C1.100
; #@! TA.AperFunction,Plated,PTH,ComponentDrill
T9C1.400
; #@! TA.AperFunction,Plated,PTH,ComponentDrill
T10C2.300
; #@! TA.AperFunction,NonPlated,NPTH,ComponentDrill
T11C3.200
%
G90
G05
T1
X11.93Y-5.29
X15.0Y-8.0
X22.0Y-8.0
X22.0Y-57.08
X22.0Y-59.62
X22.0Y-67.24
X22.0Y-69.78
X25.07Y-5.29
X27.0Y-76.0
X29.62Y-57.08
X29.62Y-64.7
X29.62Y-67.24
X29.62Y-67.24
X29.62Y-69.78
X37.0Y-34.0
X48.0Y-22.0
X48.0Y-22.0
X48.0Y-29.62
X52.16Y-54.0
X52.16Y-62.0
X52.92Y-80.0
X52.92Y-94.0
X53.0Y-34.0
X55.46Y-94.0
X58.0Y-80.0
X69.3Y-9.0
X70.0Y-88.0
X72.0Y-102.0
X72.0Y-104.54
X72.0Y-107.08
X72.0Y-109.62
X74.0Y-6.0
X74.54Y-109.62
X75.0Y-88.0
X87.0Y-30.0
X98.0Y-12.0
X100.0Y-36.0
X100.0Y-38.54
X100.0Y-41.08
X100.0Y-53.78
X100.0Y-56.32
X100.0Y-58.86
X100.0Y-61.4
X100.0Y-66.48
X100.0Y-69.02
X100.0Y-71.56
X100.0Y-79.18
X100.0Y-102.0
X117.78Y-41.08
X117.78Y-46.16
X117.78Y-53.78
X117.78Y-66.48
X117.78Y-79.18
X122.92Y-100.0
X129.5Y-12.0
X140.0Y-16.54
X148.0Y-58.0
X160.0Y-40.0
X160.0Y-52.0
X168.16Y-24.0
X178.0Y-28.0
X178.0Y-40.0
X178.0Y-52.0
X178.0Y-64.0
X182.0Y-62.76
X182.0Y-72.92
X185.5Y-14.0
T2
X148.0Y-58.0
X149.27Y-56.73
X150.54Y-58.0
T3
X22.0Y-52.0
X22.0Y-54.54
X22.0Y-57.08
X22.0Y-59.62
X22.0Y-62.16
X22.0Y-64.7
X22.0Y-67.24
X22.0Y-69.78
X22.0Y-76.0
X27.0Y-76.0
X28.0Y-68.0
X29.62Y-52.0
X29.62Y-54.54
X29.62Y-57.08
X29.62Y-59.62
X29.62Y-62.16
X29.62Y-64.7
X29.62Y-67.24
X29.62Y-69.78
X32.0Y-34.0
X37.0Y-34.0
X38.16Y-68.0
X40.0Y-42.0
X42.0Y-54.0
X42.0Y-62.0
X44.88Y-42.0
X48.0Y-34.0
X52.16Y-54.0
X52.16Y-62.0
X52.92Y-80.0
X52.92Y-94.0
X53.0Y-34.0
X55.46Y-80.0
X55.46Y-94.0
X58.0Y-80.0
X58.0Y-94.0
X70.0Y-78.0
X70.0Y-88.0
X75.0Y-78.0
X75.0Y-88.0
X82.0Y-30.0
X87.0Y-30.0
X122.92Y-100.0
X125.46Y-100.0
X126.0Y-12.0
X128.0Y-56.0
X128.0Y-100.0
X129.5Y-12.0
X138.16Y-56.0
X160.0Y-28.0
X160.0Y-40.0
X160.0Y-52.0
X160.0Y-64.0
X170.16Y-28.0
X170.16Y-40.0
X170.16Y-52.0
X170.16Y-64.0
X182.0Y-14.0
X185.5Y-14.0
T4
X178.0Y-25.46
X178.0Y-28.0
X178.0Y-37.46
X178.0Y-40.0
X178.0Y-49.46
X178.0Y-52.0
X178.0Y-61.46
X178.0Y-64.0
T5
X15.0Y-8.0
X17.5Y-8.0
X19.5Y-8.0
X22.0Y-8.0
T6
X48.0Y-22.0
X48.0Y-24.54
X48.0Y-27.08
X48.0Y-29.62
X72.0Y-102.0
X72.0Y-104.54
X72.0Y-107.08
X72.0Y-109.62
X74.54Y-102.0
X74.54Y-104.54
X74.54Y-107.08
X74.54Y-109.62
X100.0Y-36.0
X100.0Y-38.54
X100.0Y-41.08
X100.0Y-43.62
X100.0Y-46.16
X100.0Y-48.7
X100.0Y-51.24
X100.0Y-53.78
X100.0Y-56.32
X100.0Y-58.86
X100.0Y-61.4
X100.0Y-63.94
X100.0Y-66.48
X100.0Y-69.02
X100.0Y-71.56
X100.0Y-74.1
X100.0Y-76.64
X100.0Y-79.18
X100.0Y-81.72
X100.0Y-84.26
X100.0Y-102.0
X100.0Y-104.54
X100.0Y-107.08
X100.0Y-109.62
X112.0Y-12.0
X117.78Y-36.0
X117.78Y-38.54
X117.78Y-41.08
X117.78Y-43.62
X117.78Y-46.16
X117.78Y-48.7
X117.78Y-51.24
X117.78Y-53.78
X117.78Y-56.32
X117.78Y-58.86
X117.78Y-61.4
X117.78Y-63.94
X117.78Y-66.48
X117.78Y-69.02
X117.78Y-71.56
X117.78Y-74.1
X117.78Y-76.64
X117.78Y-79.18
X117.78Y-81.72
X117.78Y-84.26
X140.0Y-14.0
X140.0Y-16.54
X140.0Y-19.08
T7
X154.0Y-14.0
X155.2Y-8.9
T8
X98.0Y-12.0
X98.0Y-16.5
X104.5Y-12.0
X104.5Y-16.5
X158.0Y-10.0
X158.0Y-24.0
X168.16Y-10.0
X168.16Y-24.0
T9
X182.0Y-62.76
X182.0Y-67.84
X182.0Y-72.92
X182.0Y-78.0
T10
X11.93Y-5.29
X25.07Y-5.29
T11
X6.0Y-6.0
X6.0Y-104.0
X184.0Y-6.0
X184.0Y-104.0
T6
X68.3Y-9.0G85X70.3Y-9.0
G05
X74.0Y-5.0G85X74.0Y-7.0
G05
X74.0Y-11.0G85X74.0Y-13.0
G05
M30
